<svg width="200" height="200" viewBox="0 0 200 200" xmlns="http://www.w3.org/2000/svg">
    <!-- Body -->
    <path d="M150,150 C150,100 50,100 50,150 L50,180 L150,180 Z" fill="#A0522D" />
    <!-- Head -->
    <circle cx="100" cy="70" r="40" fill="#A0522D" />
    <!-- Ears -->
    <path d="M30,50 Q10,20 50,10" fill="#A0522D" />
    <path d="M170,50 Q190,20 150,10" fill="#A0522D" />
    <!-- Eyes -->
    <circle cx="80" cy="60" r="5" fill="black" />
    <circle cx="120" cy="60" r="5" fill="black" />
    <!-- Nose -->
    <polygon points="100,80 90,90 110,90" fill="black" />
    <!-- Mouth -->
    <path d="M70,100 Q100,110 130,100" stroke="black" stroke-width="2" fill="none" />
    <!-- Tail -->
    <path d="M160,160 Q180,140 170,130" stroke="#A0522D" stroke-width="10" fill="none" stroke-linecap="round"/>
    <!-- Legs -->
    <line x1="60" y1="180" x2="60" y2="190" stroke="#A0522D" stroke-width="10" stroke-linecap="round"/>
    <line x1="140" y1="180" x2="140" y2="190" stroke="#A0522D" stroke-width="10" stroke-linecap="round"/>
</svg>